<svg id="Capa_1" data-name="Capa 1" xmlns="http://www.w3.org/2000/svg" viewBox="0 0 278.03 252.95"><defs><style>.cls-1{fill:#bbb;}.cls-2{fill:var(--color-azulPrimario);}</style></defs><title>logo petrelv2</title><path class="cls-1" d="M86.85,216.84H86c-8.48,0-16-5.44-17-14v-1.44l1-120.56c-0.09-.16,0-0.27.06-0.27V76.29a17.6,17.6,0,0,0-11.82,5,15.8,15.8,0,0,0-4.43,11.22L53,223v1.21c0,8.53,8.29,14.2,16.77,14.2h0.56l99.82-8.75a15.79,15.79,0,0,0,15.21-16.17l-0.06-5.24Z"/><path class="cls-1" d="M192.11,81.57c3.33,0,9.15-2.85,13.22-5.08l-0.08-6.57-16.63,7.15S174.81,81.64,192.11,81.57Z"/><path class="cls-1" d="M178.61,49.57c4.24,1.13,9.64-2.1,15.32-5.56-4-2-9-3-14.75-3h0l-16.93,1.12C165.92,45,170.93,47.53,178.61,49.57Z"/><path class="cls-1" d="M170.4,88.5s-5.55-2.49-7.34-2.21c-13.56,2.17-23.82,7.94-40.23,9.8,0,0-19.58,2.59-4.72-8.42,6-4.46,15.06-9.49,21.5-13.26,3.54-2.07,9.71-7.43,2.88-16.56-2.28-3-5-3.17-6.73-14l-44.29,3a17.68,17.68,0,0,0-11.85,5A15.5,15.5,0,0,0,75.52,63L75,193.53V195c0,8.53,7.94,14,16.42,14h0.39l99.73-8.75A15.76,15.76,0,0,0,206.72,184l-1.12-86.23C195.49,92.22,181.15,86.09,170.4,88.5Z"/><path class="cls-2" d="M259,41.46l-2.32-4L240,39.61s-15.39-27.47-64-3L159.78,18.57s-4-5.93-20.25-7.11c-6.91-.5-38.81,2.29-38.81,2.29s-16.48.8-1.54,10.84c6.89,4.64,13.25,11.92,31.27,12,0,0-1.54,23.7,6.18,27.71L98.4,88.86s-25.46,18.85,4.65,15.64c0,0,10.27,10.2,61.36-9.21l25.09,6.83s17.76,10.84,30.11,15.26l8.49,10.44s18.42,21.39,14.76-6.87c-1.83-14.13-10.26-36.37-26.4-50.8,0,0,10.1-6.59,13.44-12.75L204.81,68.64l-16.8,7s-15.11,7.22,1.87,7.15c5.39,0,20.2-9,20.2-9s17.9,22.15,20,27.81c1.13,3,6.86,13.7-12.05,2.85,0,0-28.56-20.48-46.71-16.47,0,0-5.45-2.42-7.21-2.14-13.32,2.11-23.39,7.7-39.5,9.51,0,0-19.23,2.51-4.63-8.17,5.92-4.33,14.79-9.2,21.11-12.86,3.47-2,9.53-7.21,2.82-16.06-2.64-3.48-4.05-2.74-5.6-19.88-0.56-6.26-6.27-10.24-16.41-15.46,0,0,19.82-5.17,23-2,12.79,12.55,9.86,23.87,33.28,30C185,52.76,196,42.57,205.11,39.32c5.62-2,14.24,9.78,38.62,5.16Z"/></svg>
